<svg width="543" height="158" viewBox="0 0 543 158" fill="none" xmlns="http://www.w3.org/2000/svg">
<g filter="url(#filter0_d_13_165)">
<path fill-rule="evenodd" clip-rule="evenodd" d="M4 74.9977V149.961H30.0747C44.4162 149.961 59.0315 149.641 62.5534 149.249C80.9926 147.198 97.6731 138.391 107.452 125.544C117.485 112.364 122.213 96.0655 122.213 74.6645C122.213 57.9406 119.961 46.7673 114.201 34.9251C106.796 19.6985 94.7409 9.12358 78.4725 3.5836C69.272 0.450452 63.9881 0.0393145 32.8873 0.0366491L4 0.0339852V74.9977ZM269.83 74.9977V149.961H278.847H287.864V90.9346C287.864 44.0154 288.035 31.9619 288.699 32.1731C289.158 32.319 307.889 58.8062 330.322 91.0332L371.111 149.628L379.915 149.814L388.719 150V75.017V0.0339852H380.036L371.353 0.0339852V59.0054C371.353 107.92 371.2 117.977 370.456 117.977C369.963 117.977 351.103 91.4484 328.545 59.0247L287.53 0.0726322L278.68 0.0533087L269.83 0.0339852V74.9977ZM415.521 4.51515C417.04 6.99794 429.214 26.7697 442.574 48.4525L466.865 87.8754V118.918V149.961H475.882H484.899V119.2V88.4398L511.949 44.5238C526.827 20.3695 539 0.478437 539 0.320513C539 0.163256 534.4 0.0339852 528.778 0.0339852L518.556 0.0339852L497.81 34.8504C486.4 53.9998 476.649 69.7482 476.14 69.8475C475.55 69.9621 467.692 57.3875 454.487 35.1976L433.759 0.367157L423.258 0.183912L412.757 0L415.521 4.51515ZM187.343 8.0501C173.455 10.1897 159.666 17.2157 149.555 27.3034C123.047 53.7493 123.047 96.246 149.555 122.692C176.063 149.138 218.66 149.138 245.168 122.692C271.676 96.246 271.676 53.7493 245.168 27.3034C232.73 14.8941 217.339 8.258 199.699 7.69761C195.107 7.55168 189.547 7.71027 187.343 8.0501ZM65.9672 17.3196C90.9612 22.4651 104.755 42.8179 104.83 74.6645C104.899 103.292 92.8788 123.515 71.577 130.611C64.119 133.095 55.5958 133.961 38.5646 133.965L22.7016 133.969V74.9977V16.0262L41.2363 16.0349C56.8675 16.0422 60.7414 16.2435 65.9672 17.3196ZM164.612 49.6766C168.284 54.5449 169.81 55.6057 170.512 53.7799C170.702 53.2875 171.86 52.4226 173.088 51.8575C175.038 50.96 176.1 50.9393 181.494 51.697C193.874 53.4348 207.786 59.5145 218.401 67.8245C220.421 69.4064 223.727 71.9538 225.748 73.4851C227.768 75.0163 229.966 76.9534 230.632 77.7903C231.41 78.7678 233.848 79.9219 237.456 81.0201C241.848 82.3561 243.376 83.1557 244.47 84.689C245.24 85.7671 245.682 86.9512 245.454 87.3204C244.56 88.765 236.414 88.0447 230.419 85.991C222.163 83.163 218.033 82.4607 215.978 83.5355L214.33 84.3964L215.698 85.6312C217.61 87.357 217.487 89.7399 215.461 90.2476C212.265 91.0479 207.239 89.3547 203.455 86.2042C202.4 85.3247 201.382 84.7576 201.195 84.9448C200.65 85.4879 202.536 87.9974 207.806 93.7439C212.48 98.8401 215.027 103.515 213.607 104.389C212.369 105.153 203.303 98.0631 196.781 91.2305L190.014 84.1419L186.007 83.8314C181.012 83.4449 174.923 81.15 171.926 78.5253C170.67 77.4252 169.643 76.6689 169.643 76.8441C169.643 78.2654 172.015 83.2657 173.69 85.376C177.794 90.5461 174.405 93.0916 167.86 89.7552C161.895 86.714 157.666 80.5936 157.635 74.9583C157.616 71.5533 158.732 70.0141 161.648 69.419L163.94 68.9513L159.836 66.4638C157.578 65.0951 154.819 62.9388 153.702 61.6708C151.636 59.3226 148.54 50.6715 149.175 49.0202C149.823 47.3357 155.016 45.3054 160.066 44.7623C160.493 44.7163 162.538 46.9279 164.612 49.6766Z" fill="#EEEEEE"/>
</g>
<defs>
<filter id="filter0_d_13_165" x="0" y="0" width="543" height="158" filterUnits="userSpaceOnUse" color-interpolation-filters="sRGB">
<feFlood flood-opacity="0" result="BackgroundImageFix"/>
<feColorMatrix in="SourceAlpha" type="matrix" values="0 0 0 0 0 0 0 0 0 0 0 0 0 0 0 0 0 0 127 0" result="hardAlpha"/>
<feOffset dy="4"/>
<feGaussianBlur stdDeviation="2"/>
<feComposite in2="hardAlpha" operator="out"/>
<feColorMatrix type="matrix" values="0 0 0 0 0 0 0 0 0 0 0 0 0 0 0 0 0 0 0.25 0"/>
<feBlend mode="normal" in2="BackgroundImageFix" result="effect1_dropShadow_13_165"/>
<feBlend mode="normal" in="SourceGraphic" in2="effect1_dropShadow_13_165" result="shape"/>
</filter>
</defs>
</svg>
