<svg width="1801" height="233" viewBox="0 0 1801 233" fill="none" xmlns="http://www.w3.org/2000/svg">
<path fill-rule="evenodd" clip-rule="evenodd" d="M67.5 1.04307C53.105 3.27807 37.179 10.0991 27.352 18.2371C12.931 30.1791 5.987 44.8951 6.012 63.4601C6.032 79.1281 10.884 90.9741 21.186 100.512C33.464 111.879 44.77 117.061 78.932 126.98C106.428 134.964 115.977 138.631 122.99 143.901C131.971 150.649 135.253 156.811 135.291 167C135.322 175.192 133.88 180.328 129.837 186.433C118.292 203.862 88.167 212.276 61.772 205.442C43.927 200.822 32.98 190.928 29.694 176.45L28.344 170.5L14.172 170.223L0 169.945V173.578C0 178.941 2.726 188.618 6.316 196C8.476 200.44 12.016 205.07 17.489 210.61C24.108 217.311 27.151 219.528 35 223.37C51.15 231.275 57.046 232.419 81.5 232.392C99.81 232.373 103.486 232.097 110.198 230.239C141.524 221.568 160.389 200.786 162.626 172.483C164.834 144.534 149.655 123.661 118.331 111.572C113.288 109.626 100.238 105.575 89.331 102.57C58.065 93.9571 51.25 91.1201 42.773 83.1901C35.254 76.1581 33.521 72.1831 33.537 62.0001C33.552 51.6581 35.948 45.9261 43.241 38.7881C52.382 29.8411 65.152 25.5281 82.5 25.5281C94.782 25.5281 101.612 26.8801 110.569 31.0821C121.877 36.3871 130.01 45.9561 131.585 55.8071L132.256 60.0001H146.128C161.981 60.0001 160.895 60.8851 158.56 49.8691C153.846 27.6321 134.21 9.49007 107.743 2.92007C98.248 0.563071 76.977 -0.428928 67.5 1.04307ZM1172.74 1.51607C1130.9 9.43907 1102.1 40.8691 1093.37 88.1481C1090.94 101.311 1090.97 130.835 1093.43 144.5C1102.53 195.11 1135.59 227.952 1181.4 231.893C1227.36 235.846 1264.32 213.046 1281.75 170C1293.35 141.345 1294.05 96.5281 1283.36 66.7561C1271.65 34.1661 1247.74 11.2761 1217.07 3.30707C1204.84 0.130072 1184.42 -0.694928 1172.74 1.51607ZM229.247 115.288C206.561 177.074 188 227.948 188 228.34C188 228.732 194.587 228.929 202.638 228.777L217.276 228.5L228.378 197.24L239.48 165.98L284.939 166.24L330.397 166.5L341.448 197.744L352.5 228.988L367.25 228.994C375.363 228.997 381.974 228.663 381.942 228.25C381.91 227.837 363.347 177.1 340.689 115.5L299.494 3.50007L284.994 3.22507L270.493 2.94907L229.247 115.288ZM376.171 4.34507C376.352 5.11507 394.95 55.9761 417.5 117.369L458.5 228.994L473.152 228.997L487.804 229L488.784 226.25C489.323 224.738 507.817 174.339 529.882 114.252C551.947 54.1661 570 4.55407 570 4.00207C570 3.37907 564.557 3.00007 555.601 3.00007H541.203L538.578 10.2501C537.134 14.2371 522.089 56.8501 505.143 104.945C488.197 153.039 473.874 192.542 473.313 192.729C472.753 192.916 457.258 150.416 438.88 98.2841L405.467 3.50007L390.655 3.22307C378.373 2.99307 375.899 3.18507 376.171 4.34507ZM605 116V229H674H743V216.5V204H688H633V166.509V129.018L683.75 128.759L734.5 128.5L734.781 116.25L735.062 104H684.031H633V66.0001V28.0001H687.5H742V15.5001V3.00007H673.5H605V116ZM877 115.914V229H919.869C965.436 229 972.851 228.43 987 223.839C1003.08 218.621 1014.43 211.766 1025.52 200.583C1046.32 179.611 1056.21 148.553 1054.68 109C1052.51 52.8431 1026.14 17.3031 978.107 5.78708C970.225 3.89708 965.605 3.68507 923.25 3.27607L877 2.82908V115.914ZM1336 116V229H1350H1364V140.5C1364 91.8251 1364.34 52.0051 1364.75 52.0121C1365.16 52.0181 1393.12 91.8431 1426.89 140.512L1488.27 229H1502.14H1516V116V3.00007H1502H1488L1487.96 92.2501L1487.93 181.5L1485.71 178.792C1484.5 177.303 1456.5 137.158 1423.5 89.5811L1363.5 3.07808L1349.75 3.03907L1336 3.00007V116ZM1551.74 6.28708C1552.82 8.12308 1571.33 38.2861 1592.86 73.3161L1632 137.007V183.004V229H1646H1660V182.502V136.004L1700.12 70.7521C1722.18 34.8631 1740.46 4.93807 1740.72 4.25007C1741.1 3.28207 1737.62 3.00007 1725.26 3.00007H1709.3L1678.27 55.2501C1661.21 83.9881 1646.63 107.617 1645.87 107.759C1645.01 107.922 1632.97 88.5931 1613.48 55.7591L1582.46 3.50007L1566.12 3.22507L1549.77 2.94907L1551.74 6.28708ZM1209.82 29.1001C1245.2 38.4431 1266.29 75.4831 1263.57 123.5C1261.95 152.084 1253.69 172.489 1237.53 187.84C1224.09 200.609 1206.9 206.767 1187.59 205.728C1165.53 204.542 1147.9 195.012 1135.56 177.594C1123.67 160.809 1118.93 143.289 1118.88 116C1118.85 91.8271 1123.02 74.6521 1132.73 59.0741C1149.22 32.6281 1179.13 20.9961 1209.82 29.1001ZM961.854 29.0411C991.939 32.8131 1012.54 49.4431 1021.9 77.5091C1026.15 90.2421 1027.42 99.2981 1027.39 116.5C1027.31 160.353 1010.03 189.271 977.786 199.498C965.582 203.369 959.208 203.984 931.25 203.992L905 204V116V28.0001H929.276C942.628 28.0001 957.288 28.4681 961.854 29.0411ZM303.152 89.7501L320.786 139.5L285.239 139.763C265.688 139.907 249.53 139.863 249.332 139.665C249.134 139.467 255.976 119.549 264.537 95.4021C284.665 38.6361 284.164 40.0001 284.893 40.0001C285.237 40.0001 293.454 62.3871 303.152 89.7501ZM1772.44 192.413C1768.27 194.228 1762.17 201.574 1761.39 205.719C1761.04 207.585 1760.97 211.355 1761.23 214.096C1762.13 223.383 1770.89 230.953 1780.79 230.984C1793.32 231.023 1801.86 221.371 1800.78 208.378C1800.26 202.068 1796.68 196.855 1790.41 193.266C1785.88 190.676 1777.35 190.271 1772.44 192.413Z" fill="#EEEEEE"/>
</svg>
